<svg fill="rgba(107, 80, 217, 0.8)" id="Capa_1" enable-background="new 0 0 512 512" height="512" viewBox="0 0 512 512" width="512" xmlns="http://www.w3.org/2000/svg"><path d="m124.671 374.802c-.695 6.561-.885 13.15-.541 19.721-9.088 1.35-20.154 3.172-25.238 3.874-6.746.932-13.186 3.022-19.141 6.213-3.651 1.956-5.025 6.501-3.069 10.153s6.502 5.025 10.153 3.069c4.383-2.348 9.13-3.888 14.109-4.576 20.451-2.822 54.525-9.713 100.118-10.5 4.142-.072 7.441-3.487 7.37-7.628-.07-4.06-3.377-7.417-7.629-7.37-19.582.338-39.863 1.885-61.746 4.698-1.091-26.95 7.878-53.097 23.635-75.116 22.151 6.922 46.471 10.55 71.893 10.55 86.288 0 167.973-43.069 183.433-126.902 6.082-2.329 12.644-3.239 19.192-2.596 4.138.407 7.791-2.612 8.195-6.734.402-4.122-2.612-7.791-6.734-8.194-6.248-.611-12.509-.186-18.547 1.218.309-4.093.47-8.244.47-12.453 0-22.312-4.377-43.025-12.884-61.682 21.052-9.236 35.117-29.801 35.117-52.7.001-31.898-26.778-57.847-59.694-57.847-24.296 0-45.755 14.132-54.965 35.266-27.518-12.195-59.559-18.701-93.582-18.701-34.022 0-66.064 6.506-93.582 18.701-9.211-21.134-30.669-35.266-54.965-35.266-32.916 0-59.695 25.949-59.695 57.845 0 22.899 14.064 43.464 35.117 52.7-8.506 18.657-12.884 39.37-12.884 61.682 0 31.738 8.843 60.248 25.862 84.188-22.682 1.776-43.356 17.24-50.274 40.84-8.873 30.267 8.439 61.942 38.707 70.816 18.595 5.452 42.453 6.785 61.799 6.731zm276.062-277.582c-6.761-11.324-15.211-21.747-25.287-31.148 14.554-12.15 35.681-13.942 52.203-4.451-1.458 15.688-11.906 29.423-26.916 35.599zm-17.6-82.22c19.648 0 36.363 12.221 42.339 29.146-20.999-7.54-44.942-3.063-61.599 12.142-6.903-5.3-14.329-10.115-22.225-14.405 6.699-16.08 22.983-26.883 41.485-26.883zm-297.094 0c18.502 0 34.785 10.803 41.485 26.882-7.896 4.29-15.322 9.105-22.225 14.405-16.691-15.236-40.66-19.66-61.599-12.142 5.977-16.924 22.692-29.145 42.339-29.145zm-44.516 46.62c16.499-9.478 37.628-7.717 52.203 4.452-10.076 9.401-18.526 19.824-25.287 31.148-15.009-6.176-25.458-19.91-26.916-35.6zm22.054 110.607c0-90.743 79.904-140.663 171.009-140.663 91.317 0 171.009 50.06 171.009 140.663 0 91.285-80.456 140.662-171.009 140.662-90.82 0-171.009-49.628-171.009-140.662zm-25.018 129.249c6.23-21.253 27.415-33.822 48.845-29.357 17.131 17.993 38.004 31.03 60.633 40.023-10.075 14.944-17.108 31.083-20.87 47.642-24.615.219-45.789-1.917-60.075-6.106-22.31-6.541-35.075-29.889-28.533-52.202zm436.408-99.975c-2.813-3.039-7.559-3.221-10.599-.405-3.039 2.814-3.221 7.56-.405 10.599 15.213 16.424 14.879 41.863-.761 57.915-32.624 33.482-67.026 59.642-88.344 72.96-3.513 2.195-4.582 6.822-2.387 10.334 2.201 3.525 6.833 4.575 10.334 2.387 7.441-4.649 16.419-10.807 26.332-18.241 11.806 24.63 15.797 53.204 8.364 78.689-26.959-10.569-56.944 8.105-56.944 35.621 0 8.07 2.658 15.565 7.19 21.766-35.563 18.618-83.213 22.069-121.487 16.565-21.171-3.045-32.401-2.688-37.48-2.889-49.589 0-90.766 10.2-102.141 10.2-20.86 0-38.748-15.612-41.608-36.315-.967-6.998-.157-14.159 2.341-20.71 1.476-3.871-.465-8.204-4.336-9.68-3.869-1.476-8.204.466-9.68 4.336-3.394 8.9-4.495 18.619-3.184 28.107 3.882 28.082 28.158 49.26 56.469 49.26 13.729 0 53.177-10.2 102.142-10.2 4.264.17 15.046-.183 35.344 2.737 43.034 6.188 96.094 1.758 135.348-20.728 6.413 3.878 14.037 6.139 22.218 6.139 22.683 0 41.136-17.311 41.136-38.589 0-10.698-4.667-20.391-12.189-27.387 10.442-31.009 5.801-66.268-9.4-96.278 16.591-13.21 34.925-29.368 52.707-47.617 21.215-21.776 21.665-56.29 1.02-78.576zm-73.274 273.447c-14.411 0-26.135-10.582-26.135-23.589s11.724-23.589 26.135-23.589 26.136 10.582 26.136 23.589c-.001 13.007-11.725 23.589-26.136 23.589zm-229.084-333.132c4.142 0 7.5-3.358 7.5-7.5v-12c0-4.142-3.358-7.5-7.5-7.5s-7.5 3.358-7.5 7.5v12c0 4.142 3.357 7.5 7.5 7.5zm17.317 102.509c12.026 8.587 27.886 13.316 44.66 13.316 16.773 0 32.634-4.73 44.659-13.316 12.791-9.134 19.835-21.521 19.835-34.882 0-13.417-7.289-35.201-17.726-52.974-13.64-23.228-30.249-36.02-46.768-36.02s-33.128 12.792-46.769 36.02c-10.437 17.773-17.726 39.557-17.726 52.974 0 13.36 7.044 25.748 19.835 34.882zm44.66-108.876c25.425 0 49.494 53.843 49.494 73.994 0 17.995-22.666 33.198-49.494 33.198-26.829 0-49.495-15.203-49.495-33.198 0-20.151 24.07-73.994 49.495-73.994zm.471 88.632c8.477 0 16.539-3.671 22.119-10.073 2.722-3.123 2.395-7.86-.727-10.582-3.123-2.721-7.86-2.396-10.582.727-2.73 3.132-6.669 4.929-10.81 4.929s-8.081-1.796-10.81-4.929c-2.721-3.123-7.459-3.447-10.582-.727-3.123 2.722-3.448 7.459-.727 10.582 5.58 6.401 13.642 10.073 22.119 10.073zm62.449-82.265c4.143 0 7.5-3.358 7.5-7.5v-12c0-4.142-3.357-7.5-7.5-7.5s-7.5 3.358-7.5 7.5v12c0 4.142 3.357 7.5 7.5 7.5zm-77.715 39.77 10.079 4.482c3.002 1.335 6.429 1.335 9.432 0l10.079-4.482c3.633-1.616 4.919-6.126 2.683-9.415-1.656-2.435-4.138-4.188-6.986-4.934-6.879-1.801-14.105-1.801-20.983 0-2.849.746-5.331 2.498-6.986 4.934-2.237 3.289-.952 7.799 2.682 9.415z"/></svg>